<svg xmlns="http://www.w3.org/2000/svg" width="500" height="400" viewBox="0 0 500 400">
  <defs>
    <linearGradient id="academic-grad" x1="0%" y1="0%" x2="100%" y2="100%">
      <stop offset="0%" style="stop-color:#4a6cf7;stop-opacity:0.8" />
      <stop offset="100%" style="stop-color:#6a30e0;stop-opacity:0.9" />
    </linearGradient>
  </defs>
  
  <!-- Background -->
  <rect width="500" height="400" fill="#f9f9ff" rx="20" />
  
  <!-- Graduation Cap -->
  <g transform="translate(250, 150) scale(0.8)">
    <rect x="-100" y="-30" width="200" height="20" fill="#333" rx="2" />
    <rect x="-100" y="-60" width="200" height="30" fill="#333" rx="5" />
    <rect x="-70" y="-90" width="140" height="30" fill="#333" rx="10" />
    <circle cx="0" cy="-75" r="15" fill="url(#academic-grad)" />
    <rect x="-5" y="-30" width="10" height="80" fill="#333" />
    <path d="M 5 50 L 25 30 L 5 10" fill="none" stroke="#333" stroke-width="3" />
  </g>
  
  <!-- Quiz Sheet -->
  <g transform="translate(120, 200)">
    <rect x="-60" y="-80" width="120" height="160" fill="white" stroke="#ddd" stroke-width="2" rx="5" />
    
    <!-- Quiz Content -->
    <rect x="-45" y="-65" width="90" height="10" fill="#e0e6ff" rx="2" />
    <rect x="-45" y="-45" width="75" height="8" fill="#e0e6ff" rx="2" />
    <rect x="-45" y="-30" width="90" height="8" fill="#e0e6ff" rx="2" />
    
    <circle cx="-35" cy="-10" r="5" fill="#dddddd" />
    <rect x="-25" y="-13" width="60" height="6" fill="#dddddd" rx="2" />
    
    <circle cx="-35" cy="10" r="5" fill="#dddddd" />
    <rect x="-25" y="7" width="60" height="6" fill="#dddddd" rx="2" />
    
    <circle cx="-35" cy="30" r="5" fill="#4a6cf7" />
    <rect x="-25" y="27" width="60" height="6" fill="#4a6cf7" opacity="0.7" rx="2" />
    
    <circle cx="-35" cy="50" r="5" fill="#dddddd" />
    <rect x="-25" y="47" width="60" height="6" fill="#dddddd" rx="2" />
  </g>
  
  <!-- AI Brain -->
  <g transform="translate(350, 220)">
    <circle cx="0" cy="0" r="60" fill="white" stroke="#ddd" stroke-width="2" />
    
    <!-- Brain Design -->
    <path d="M -20 -20 C -30 -30, -40 -15, -30 -5 C -40 0, -40 15, -25 15 C -20 25, -5 30, 5 20 C 15 30, 30 25, 30 15 C 45 15, 45 0, 35 -5 C 45 -15, 35 -30, 25 -20 C 20 -35, 0 -35, -5 -25 C -15 -35, -30 -30, -20 -20" 
          fill="none" stroke="url(#academic-grad)" stroke-width="3" />
    
    <!-- Circuit Patterns -->
    <circle cx="-15" cy="-10" r="3" fill="#4a6cf7" />
    <circle cx="15" cy="-10" r="3" fill="#6a30e0" />
    <circle cx="0" cy="20" r="3" fill="#4a6cf7" />
    <circle cx="-25" cy="10" r="3" fill="#6a30e0" />
    <circle cx="25" cy="10" r="3" fill="#4a6cf7" />
    
    <line x1="-15" y1="-10" x2="15" y2="-10" stroke="#4a6cf7" stroke-width="1.5" />
    <line x1="15" y1="-10" x2="0" y2="20" stroke="#6a30e0" stroke-width="1.5" />
    <line x1="0" y1="20" x2="-25" y2="10" stroke="#4a6cf7" stroke-width="1.5" />
    <line x1="0" y1="20" x2="25" y2="10" stroke="#6a30e0" stroke-width="1.5" />
    <line x1="-25" y1="10" x2="-15" y2="-10" stroke="#4a6cf7" stroke-width="1.5" />
    <line x1="25" y1="10" x2="15" y2="-10" stroke="#6a30e0" stroke-width="1.5" />
  </g>
  
  <!-- Connection Line Between Quiz and AI -->
  <path d="M 180 200 C 230 180, 270 180, 290 220" fill="none" stroke="#4a6cf7" stroke-width="2" stroke-dasharray="5,5" />
  
  <!-- Student Figure (simplified) -->
  <g transform="translate(250, 300)">
    <circle cx="0" cy="-15" r="15" fill="#4a6cf7" />
    <path d="M 0 0 L 0 40" stroke="#4a6cf7" stroke-width="5" />
    <path d="M 0 15 L -20 35" stroke="#4a6cf7" stroke-width="4" />
    <path d="M 0 15 L 20 35" stroke="#4a6cf7" stroke-width="4" />
    <path d="M 0 40 L -15 70" stroke="#4a6cf7" stroke-width="4" />
    <path d="M 0 40 L 15 70" stroke="#4a6cf7" stroke-width="4" />
  </g>
</svg> 