<svg xmlns="http://www.w3.org/2000/svg" width="500" height="400" viewBox="0 0 500 400">
  <defs>
    <linearGradient id="corporate-grad" x1="0%" y1="0%" x2="100%" y2="100%">
      <stop offset="0%" style="stop-color:#4a6cf7;stop-opacity:0.8" />
      <stop offset="100%" style="stop-color:#6a30e0;stop-opacity:0.9" />
    </linearGradient>
  </defs>
  
  <!-- Background -->
  <rect width="500" height="400" fill="#f9f9ff" rx="20" />
  
  <!-- Office Building Outline -->
  <g transform="translate(250, 200)">
    <rect x="-150" y="-120" width="300" height="240" fill="white" stroke="#ddd" stroke-width="3" rx="5" />
    
    <!-- Windows -->
    <g>
      <!-- Left Column -->
      <rect x="-130" y="-100" width="40" height="30" fill="#e0e6ff" rx="2" />
      <rect x="-130" y="-60" width="40" height="30" fill="#e0e6ff" rx="2" />
      <rect x="-130" y="-20" width="40" height="30" fill="#e0e6ff" rx="2" />
      <rect x="-130" y="20" width="40" height="30" fill="#e0e6ff" rx="2" />
      <rect x="-130" y="60" width="40" height="30" fill="#e0e6ff" rx="2" />
      
      <!-- Middle Column -->
      <rect x="-70" y="-100" width="40" height="30" fill="#e0e6ff" rx="2" />
      <rect x="-70" y="-60" width="40" height="30" fill="#e0e6ff" rx="2" />
      <rect x="-70" y="-20" width="40" height="30" fill="#e0e6ff" rx="2" />
      <rect x="-70" y="20" width="40" height="30" fill="#e0e6ff" rx="2" />
      <rect x="-70" y="60" width="40" height="30" fill="#e0e6ff" rx="2" />
      
      <!-- Right Column -->
      <rect x="30" y="-100" width="40" height="30" fill="#e0e6ff" rx="2" />
      <rect x="30" y="-60" width="40" height="30" fill="#e0e6ff" rx="2" />
      <rect x="30" y="-20" width="40" height="30" fill="#e0e6ff" rx="2" />
      <rect x="30" y="20" width="40" height="30" fill="#e0e6ff" rx="2" />
      <rect x="30" y="60" width="40" height="30" fill="#e0e6ff" rx="2" />
      
      <!-- Very Right Column -->
      <rect x="90" y="-100" width="40" height="30" fill="#e0e6ff" rx="2" />
      <rect x="90" y="-60" width="40" height="30" fill="#e0e6ff" rx="2" />
      <rect x="90" y="-20" width="40" height="30" fill="#e0e6ff" rx="2" />
      <rect x="90" y="20" width="40" height="30" fill="#e0e6ff" rx="2" />
      <rect x="90" y="60" width="40" height="30" fill="#e0e6ff" rx="2" />
    </g>
    
    <!-- Door -->
    <rect x="-10" y="70" width="20" height="50" fill="#333" rx="2" />
  </g>
  
  <!-- Virtual Training Room -->
  <g transform="translate(250, 200)">
    <rect x="-10" y="-50" width="120" height="80" fill="white" stroke="url(#corporate-grad)" stroke-width="3" rx="10" />
    
    <!-- Screen -->
    <rect x="0" y="-40" width="100" height="60" fill="#f5f5f7" rx="5" />
    
    <!-- Training Content -->
    <rect x="10" y="-30" width="80" height="10" fill="#4a6cf7" opacity="0.7" rx="2" />
    <rect x="10" y="-15" width="60" height="6" fill="#dddddd" rx="2" />
    <rect x="10" y="-5" width="70" height="6" fill="#dddddd" rx="2" />
    
    <!-- Stats Section -->
    <rect x="10" y="10" width="30" height="20" fill="#6a30e0" opacity="0.3" rx="2" />
    <rect x="45" y="10" width="30" height="20" fill="#4a6cf7" opacity="0.3" rx="2" />
    <rect x="80" y="10" width="10" height="20" fill="#6a30e0" opacity="0.3" rx="2" />
  </g>
  
  <!-- Business People Figures -->
  <g transform="translate(130, 220)">
    <!-- Person 1 -->
    <g transform="translate(0, 0)">
      <circle cx="0" cy="-25" r="12" fill="#4a6cf7" />
      <path d="M 0 -13 L 0 15" stroke="#4a6cf7" stroke-width="4" />
      <path d="M 0 0 L -15 10" stroke="#4a6cf7" stroke-width="3" />
      <path d="M 0 0 L 15 10" stroke="#4a6cf7" stroke-width="3" />
      <path d="M 0 15 L -8 40" stroke="#4a6cf7" stroke-width="3" />
      <path d="M 0 15 L 8 40" stroke="#4a6cf7" stroke-width="3" />
      
      <!-- Briefcase -->
      <rect x="-10" y="10" width="20" height="15" fill="#333" rx="2" />
    </g>
    
    <!-- Person 2 -->
    <g transform="translate(-40, 10)">
      <circle cx="0" cy="-25" r="12" fill="#6a30e0" />
      <path d="M 0 -13 L 0 15" stroke="#6a30e0" stroke-width="4" />
      <path d="M 0 0 L -15 10" stroke="#6a30e0" stroke-width="3" />
      <path d="M 0 0 L 15 10" stroke="#6a30e0" stroke-width="3" />
      <path d="M 0 15 L -8 40" stroke="#6a30e0" stroke-width="3" />
      <path d="M 0 15 L 8 40" stroke="#6a30e0" stroke-width="3" />
    </g>
    
    <!-- Person 3 -->
    <g transform="translate(40, 10)">
      <circle cx="0" cy="-25" r="12" fill="#4a6cf7" />
      <path d="M 0 -13 L 0 15" stroke="#4a6cf7" stroke-width="4" />
      <path d="M 0 0 L -15 10" stroke="#4a6cf7" stroke-width="3" />
      <path d="M 0 0 L 15 10" stroke="#4a6cf7" stroke-width="3" />
      <path d="M 0 15 L -8 40" stroke="#4a6cf7" stroke-width="3" />
      <path d="M 0 15 L 8 40" stroke="#4a6cf7" stroke-width="3" />
    </g>
  </g>
  
  <!-- Connection Lines -->
  <path d="M 170 220 C 190 180, 220 170, 240 170" fill="none" stroke="#4a6cf7" stroke-width="2" stroke-dasharray="5,5" />
  <path d="M 130 220 C 150 180, 220 150, 240 170" fill="none" stroke="#6a30e0" stroke-width="2" stroke-dasharray="5,5" />
  <path d="M 90 230 C 120 180, 210 160, 240 170" fill="none" stroke="#4a6cf7" stroke-width="2" stroke-dasharray="5,5" />
  
  <!-- Document with Assessment -->
  <g transform="translate(380, 100)">
    <rect x="-40" y="-60" width="80" height="120" fill="white" stroke="#ddd" stroke-width="2" rx="5" />
    
    <!-- Certificate Content -->
    <rect x="-30" y="-50" width="60" height="8" fill="#e0e6ff" rx="2" />
    <rect x="-30" y="-35" width="40" height="6" fill="#e0e6ff" rx="2" />
    
    <rect x="-30" y="-15" width="60" height="2" fill="#dddddd" />
    <rect x="-30" y="-10" width="60" height="2" fill="#dddddd" />
    <rect x="-30" y="-5" width="40" height="2" fill="#dddddd" />
    
    <rect x="-30" y="10" width="60" height="2" fill="#dddddd" />
    <rect x="-30" y="15" width="60" height="2" fill="#dddddd" />
    <rect x="-30" y="20" width="40" height="2" fill="#dddddd" />
    
    <rect x="-30" y="35" width="60" height="2" fill="#dddddd" />
    <rect x="-30" y="40" width="30" height="2" fill="#dddddd" />
    
    <!-- Certificate Seal -->
    <circle cx="20" cy="40" r="10" fill="url(#corporate-grad)" />
    <circle cx="20" cy="40" r="6" fill="white" />
    <circle cx="20" cy="40" r="3" fill="url(#corporate-grad)" />
  </g>
  
  <!-- AI/Tech Element -->
  <g transform="translate(350, 300)">
    <rect x="-40" y="-40" width="80" height="80" fill="white" stroke="#ddd" stroke-width="2" rx="10" />
    
    <!-- Gear Icon -->
    <circle cx="0" cy="0" r="20" fill="none" stroke="url(#corporate-grad)" stroke-width="3" />
    <circle cx="0" cy="0" r="12" fill="none" stroke="url(#corporate-grad)" stroke-width="2" />
    <circle cx="0" cy="0" r="5" fill="url(#corporate-grad)" />
    
    <!-- Gear Teeth -->
    <rect x="-2" y="-30" width="4" height="10" fill="url(#corporate-grad)" rx="1" />
    <rect x="-2" y="20" width="4" height="10" fill="url(#corporate-grad)" rx="1" />
    <rect x="-30" y="-2" width="10" height="4" fill="url(#corporate-grad)" rx="1" />
    <rect x="20" y="-2" width="10" height="4" fill="url(#corporate-grad)" rx="1" />
    
    <rect x="-15" y="-24" width="4" height="10" fill="url(#corporate-grad)" rx="1" transform="rotate(45)" />
    <rect x="-15" y="14" width="4" height="10" fill="url(#corporate-grad)" rx="1" transform="rotate(45)" />
    <rect x="-15" y="-24" width="4" height="10" fill="url(#corporate-grad)" rx="1" transform="rotate(135)" />
    <rect x="-15" y="14" width="4" height="10" fill="url(#corporate-grad)" rx="1" transform="rotate(135)" />
  </g>
  
  <!-- Connection Between Screen and Certificate -->
  <path d="M 350 180 C 360 150, 370 140, 380 140" fill="none" stroke="#4a6cf7" stroke-width="2" stroke-dasharray="5,5" />
  
  <!-- Connection Between Screen and AI/Tech Element -->
  <path d="M 350 230 C 350 250, 350 260, 350 260" fill="none" stroke="#6a30e0" stroke-width="2" stroke-dasharray="5,5" />
</svg> 